HIERARCHY
ROOT root
{
	OFFSET 0.000000 0.000000 0.000000
	CHANNELS 6 Xposition Yposition Zposition Zrotation Yrotation Xrotation
	JOINT lhip
	{
		OFFSET 0.058581 -0.082280 -0.017664
		CHANNELS 3 Zrotation Yrotation Xrotation
		JOINT lknee
		{
			OFFSET 0.043451 -0.386469 0.008037
			CHANNELS 3 Zrotation Yrotation Xrotation
			JOINT lankle
			{
				OFFSET -0.014790 -0.426874 -0.037428
				CHANNELS 3 Zrotation Yrotation Xrotation
				JOINT ltoe
				{
					OFFSET 0.041054 -0.060286 0.122042
					CHANNELS 3 Zrotation Yrotation Xrotation
					End Site
					{
						OFFSET 0.000000 0.000000 0.000000
					}
				}
			}
		}
	}
	JOINT rhip
	{
		OFFSET -0.060310 -0.090513 -0.013543
		CHANNELS 3 Zrotation Yrotation Xrotation
		JOINT rknee
		{
			OFFSET -0.043257 -0.383688 -0.004843
			CHANNELS 3 Zrotation Yrotation Xrotation
			JOINT rankle
			{
				OFFSET 0.019056 -0.420046 -0.034562
				CHANNELS 3 Zrotation Yrotation Xrotation
				JOINT rtoe
				{
					OFFSET -0.034840 -0.062106 0.130323
					CHANNELS 3 Zrotation Yrotation Xrotation
					End Site
					{
						OFFSET 0.000000 0.000000 0.000000
					}
				}
			}
		}
	}
	JOINT lowerback
	{
		OFFSET 0.004439 0.124404 -0.038385
		CHANNELS 3 Zrotation Yrotation Xrotation
		JOINT upperback
		{
			OFFSET 0.004488 0.137956 0.026820
			CHANNELS 3 Zrotation Yrotation Xrotation
			JOINT chest
			{
				OFFSET -0.002265 0.056032 0.002855
				CHANNELS 3 Zrotation Yrotation Xrotation
				JOINT lowerneck
				{
					OFFSET -0.013390 0.211636 -0.033468
					CHANNELS 3 Zrotation Yrotation Xrotation
					JOINT upperneck
					{
						OFFSET 0.010113 0.088937 0.050410
						CHANNELS 3 Zrotation Yrotation Xrotation
						End Site
						{
							OFFSET 0.000000 0.000000 0.000000
						}
					}
				}
				JOINT lclavicle
				{
					OFFSET 0.071702 0.114000 -0.018898
					CHANNELS 3 Zrotation Yrotation Xrotation
					JOINT lshoulder
					{
						OFFSET 0.122921 0.045205 -0.019046
						CHANNELS 3 Zrotation Yrotation Xrotation
						JOINT lelbow
						{
							OFFSET 0.255332 -0.015649 -0.022946
							CHANNELS 3 Zrotation Yrotation Xrotation
							JOINT lwrist
							{
								OFFSET 0.265709 0.012698 -0.007375
								CHANNELS 3 Zrotation Yrotation Xrotation
								End Site
								{
									OFFSET 0.000000 0.000000 0.000000
								}
							}
						}
					}
				}
				JOINT rclavicle
				{
					OFFSET -0.082954 0.112472 -0.023707
					CHANNELS 3 Zrotation Yrotation Xrotation
					JOINT rshoulder
					{
						OFFSET -0.113228 0.046853 -0.008472
						CHANNELS 3 Zrotation Yrotation Xrotation
						JOINT relbow
						{
							OFFSET -0.260127 -0.014369 -0.031269
							CHANNELS 3 Zrotation Yrotation Xrotation
							JOINT rwrist
							{
								OFFSET -0.269108 0.006794 -0.006027
								CHANNELS 3 Zrotation Yrotation Xrotation
								End Site
								{
									OFFSET 0.000000 0.000000 0.000000
								}
							}
						}
					}
				}
			}
		}
	}
}
MOTION
Frames: 11
Frame Time: 0.033333
0.107694 0.260297 0.993524 68.407637 -1.880826 86.128216 3.736463 -7.244580 -1.449105 -11.176665 -25.772432 28.692556 0.345352 -0.481891 -19.567189 0.000000 -0.000000 0.000000 -1.470131 6.545474 -13.797861 4.446873 4.829560 32.947988 5.297188 -0.014596 -17.095015 0.000000 -0.000000 0.000000 -1.750730 0.930489 13.619947 5.960394 -0.491579 1.982118 0.069668 -0.643567 2.335480 8.694777 3.486390 -7.988838 -5.238323 -13.614751 0.426506 -22.776236 19.910743 -2.298506 -49.062577 14.987798 11.200053 -25.468817 -64.165852 64.429806 -0.587349 -8.466253 14.542201 25.678128 -7.428702 -9.110665 47.303824 8.395697 16.511892 -157.754755 71.363218 -121.043396 -2.538316 10.179584 5.831417 
0.106289 0.264802 0.993542 61.806238 -1.575809 86.769778 4.249504 -5.969432 -0.734027 -11.568751 -24.813999 28.567160 -0.758690 -0.744511 -20.028354 0.000000 -0.000000 0.000000 -1.559103 7.747023 -15.413788 5.068442 6.462099 33.151753 6.688056 1.785088 -18.169070 0.000000 -0.000000 0.000000 -2.075282 0.330559 13.332429 6.203881 -0.932770 2.727861 0.253212 -0.549564 2.107771 9.574980 6.241917 -7.018406 -6.360461 -11.500858 0.821672 -22.041324 19.180077 -1.684408 -49.405797 17.490834 11.544575 -27.689900 -62.579063 66.180342 -2.366417 -7.262342 14.908617 24.111525 -5.795709 -9.627798 46.080441 13.358856 16.165975 -160.420208 69.138421 -123.669546 -1.386024 8.222727 6.755953 
0.104334 0.269010 0.994119 56.767908 -1.307528 87.182138 4.490069 -5.100040 -0.117829 -11.713950 -24.098839 28.169400 -1.054948 -1.443174 -20.560635 0.000000 -0.000000 0.000000 -1.890377 8.261933 -16.666577 4.821420 5.693949 33.399520 6.163433 0.397451 -19.578845 0.000000 -0.000000 0.000000 -2.358957 -0.424857 13.437775 6.351340 -1.343614 3.011936 0.356033 -0.706345 2.243271 10.631828 8.826651 -6.126321 -7.422156 -9.164224 0.786686 -21.110623 18.241899 -0.779405 -49.449378 18.559563 12.175349 -29.640725 -60.365832 68.531103 -4.086424 -7.313459 15.486018 22.626711 -4.127512 -10.384078 46.067370 18.380176 16.130333 -158.924357 67.500335 -122.200845 0.035115 8.044179 6.869775 
0.103365 0.272279 0.994645 53.095890 -1.007895 87.266590 4.677551 -4.271960 0.456104 -11.926198 -24.246665 28.231546 -1.419032 -2.516507 -20.702019 0.000000 -0.000000 0.000000 -2.440333 6.707212 -17.211129 2.240082 1.171788 33.165930 3.903192 -4.291677 -21.747476 0.000000 -0.000000 0.000000 -2.034916 -0.920915 13.893246 6.054206 -1.889214 3.003746 0.439909 -1.093350 2.095461 11.296192 10.570976 -4.205473 -7.720879 -6.388807 0.170959 -20.043298 16.366935 0.672773 -48.850833 19.401048 12.589135 -32.895745 -58.216622 73.213467 -6.129716 -6.530060 14.730210 20.377610 -2.232399 -10.544799 45.787302 21.758425 15.039425 -157.291617 65.875346 -120.339694 1.126322 7.058123 7.127445 
0.102483 0.275194 0.995244 49.288567 -0.538444 87.304739 4.992542 -3.632909 1.178435 -12.161062 -24.542967 28.249730 -1.632071 -3.279214 -20.654283 0.000000 -0.000000 0.000000 -2.949495 5.493582 -17.662071 2.701202 -0.044469 32.436453 4.191666 -3.777966 -20.912310 0.000000 -0.000000 0.000000 -1.293496 -1.003016 13.777086 5.795790 -2.167291 3.870347 0.281332 -0.952466 1.949264 11.795105 12.515217 -3.221695 -8.080126 -3.753283 0.234750 -19.195842 14.509736 1.834585 -48.991302 19.661509 13.061724 -33.361006 -56.840626 73.679208 -7.402856 -6.368306 14.056583 17.980956 -0.444454 -10.361913 44.944801 24.848439 13.460937 -153.808462 64.491800 -116.669763 2.537355 5.910144 8.147238 
0.102035 0.276235 0.995927 44.898704 -0.289983 87.240755 4.944136 -3.175176 2.163428 -12.093328 -24.274919 27.879396 -1.353851 -3.421323 -20.163185 0.000000 -0.000000 0.000000 -3.049387 4.853645 -18.460469 2.833109 -0.172648 31.930824 4.713867 -3.266384 -17.272429 0.000000 -0.000000 0.000000 -0.924016 -1.185839 13.557997 5.222621 -2.018420 5.197684 0.122427 -0.084194 1.599652 12.373576 14.575604 -1.993969 -8.176409 -0.571092 -0.282762 -18.443190 13.265673 2.203371 -48.649048 20.860831 13.478276 -34.978778 -56.785916 75.184609 -8.421942 -5.925728 14.584460 15.601328 1.408234 -9.821558 43.890592 27.885270 11.726771 -148.489629 63.976645 -112.205070 3.134455 5.398254 8.574081 
0.100475 0.275665 0.996959 41.575629 -0.121563 87.801978 4.799345 -3.540135 2.140509 -11.922357 -23.840422 27.963826 -1.146429 -4.236318 -19.158966 0.000000 -0.000000 0.000000 -3.107736 4.620538 -19.441692 1.820481 -2.118273 31.331279 3.805260 -5.400068 -14.325355 0.000000 -0.000000 0.000000 -0.784257 -1.096259 14.564737 4.777775 -1.001539 3.471143 0.427331 -0.543597 1.196685 12.286183 15.144785 -0.176406 -6.873820 4.621800 -0.698392 -17.577042 12.347179 2.681302 -47.831573 23.802586 12.388134 -40.512769 -56.935821 81.445148 -11.526617 -6.079507 14.773446 11.986949 3.196608 -9.451400 43.999654 28.885031 11.153901 -140.573473 62.479406 -105.924036 6.903855 2.689036 11.965441 
0.099328 0.275982 0.997561 38.757688 -0.116258 87.965002 4.364139 -3.638119 2.036499 -12.164444 -23.935447 28.889280 -1.083874 -4.058978 -18.723938 0.000000 -0.000000 0.000000 -3.206269 3.989006 -19.632147 1.870498 -2.228294 30.320863 4.142628 -3.869486 -11.240910 0.000000 -0.000000 0.000000 0.064004 -1.182591 15.203549 3.862948 -0.557927 3.039301 0.054510 -0.338469 1.473620 12.282327 15.834187 0.736875 -6.875604 7.360766 -1.164349 -16.974227 11.278780 3.625098 -46.735837 24.999489 13.668805 -44.769917 -58.106189 85.914198 -12.369091 -6.342554 14.313941 9.512665 4.981067 -9.394426 41.694076 31.291465 8.447116 -130.720959 62.486774 -97.751695 8.991231 1.613468 12.211468 
0.097505 0.277493 0.997755 36.482467 -0.134698 88.229172 3.920220 -4.527525 1.382176 -12.849239 -24.129247 30.386316 -1.188768 -3.867350 -18.094033 0.000000 -0.000000 0.000000 -3.009922 4.402377 -20.629396 2.880385 -1.043783 30.031112 3.127095 -5.072830 -8.885870 0.000000 -0.000000 0.000000 0.946828 -1.470035 16.112358 3.043802 0.021202 3.090973 -0.112824 -0.218264 1.572649 11.296726 15.925050 0.648929 -7.068631 10.630915 -1.886612 -16.902452 9.982676 4.674101 -46.642175 26.319490 14.665382 -47.459474 -59.193108 88.783199 -11.662093 -7.476822 14.321646 6.591546 6.965536 -10.052104 37.961068 33.682414 5.167530 -117.058121 62.143938 -86.615352 10.327702 0.816855 12.396959 
0.096527 0.279941 0.997981 34.474578 -0.109717 88.167349 3.310807 -4.508489 0.497445 -13.544243 -24.890220 32.984996 -2.049460 -4.273307 -17.511737 0.000000 -0.000000 0.000000 -2.428449 4.542750 -21.223898 2.451120 -0.390996 30.369426 3.646209 -4.308770 -8.103546 0.000000 -0.000000 0.000000 2.286756 -1.999488 18.161507 1.941315 0.722620 2.505009 -0.278426 -0.069805 1.762468 10.367235 16.082775 0.926011 -7.841452 13.467296 -3.450837 -16.733089 8.750806 5.811362 -46.616475 27.621282 16.078295 -50.802991 -59.463552 92.883715 -12.183393 -7.956873 13.079891 3.030464 9.272245 -10.578487 32.008169 35.515821 -0.129321 -100.922708 61.031578 -73.687860 10.925703 -0.274511 12.076687 
0.095023 0.284567 0.997269 32.603851 -0.402145 88.499343 2.641178 -4.831805 -1.458492 -14.762102 -24.121796 36.144654 -2.151219 -4.221532 -16.758866 0.000000 -0.000000 0.000000 -2.284006 4.734789 -22.513067 2.749273 0.716561 30.700130 3.313545 -5.115030 -6.998699 0.000000 -0.000000 0.000000 3.405269 -2.608174 20.196792 0.798411 1.573482 1.887112 -0.568954 -0.230143 2.416174 9.174133 15.555414 0.255087 -8.889849 16.909237 -5.435793 -17.139416 7.870189 7.356501 -46.909417 28.592239 17.618281 -51.430852 -58.839263 94.098139 -11.239972 -8.903603 12.030356 -0.372753 11.553691 -11.445498 23.480932 37.558304 -6.357375 -82.329431 57.744422 -59.522647 11.419022 -1.208834 11.937786 
